<?xml version="1.0" encoding="UTF-8" standalone="no"?>
<!-- Generator: Adobe Illustrator 16.0.0, SVG Export Plug-In . SVG Version: 6.00 Build 0)  -->

<svg
   xmlns:dc="http://purl.org/dc/elements/1.1/"
   xmlns:cc="http://creativecommons.org/ns#"
   xmlns:rdf="http://www.w3.org/1999/02/22-rdf-syntax-ns#"
   xmlns:svg="http://www.w3.org/2000/svg"
   xmlns="http://www.w3.org/2000/svg"
   xmlns:sodipodi="http://sodipodi.sourceforge.net/DTD/sodipodi-0.dtd"
   xmlns:inkscape="http://www.inkscape.org/namespaces/inkscape"
   version="1.1"
   id="Capa_1"
   x="0px"
   y="0px"
   width="569"
   height="612"
   viewBox="0 0 569 612"
   enable-background="new 0 0 612 792"
   xml:space="preserve"
   inkscape:version="0.48.5 r10040"
   sodipodi:docname="cine.svg"><metadata
     id="metadata3043"><rdf:RDF><cc:Work
         rdf:about=""><dc:format>image/svg+xml</dc:format><dc:type
           rdf:resource="http://purl.org/dc/dcmitype/StillImage" /></cc:Work></rdf:RDF></metadata><defs
     id="defs3041" /><sodipodi:namedview
     pagecolor="#ffffff"
     bordercolor="#666666"
     borderopacity="1"
     objecttolerance="10"
     gridtolerance="10"
     guidetolerance="10"
     inkscape:pageopacity="0"
     inkscape:pageshadow="2"
     inkscape:window-width="1365"
     inkscape:window-height="767"
     id="namedview3039"
     showgrid="false"
     width="791px"
     inkscape:zoom="0.68939394"
     inkscape:cx="306"
     inkscape:cy="396"
     inkscape:window-x="0"
     inkscape:window-y="0"
     inkscape:window-maximized="0"
     inkscape:current-layer="Capa_1" /><g
     id="g3035"
     transform="matrix(1.1,0,0,1.1,-58.62558,-90.149807)"><path
       d="M 81.241,293.189 V 624.575 H 547.636 V 293.193 H 81.241 v -0.004 z M 523.089,428.198 H 323.643 V 600.033 H 305.232 V 428.198 H 105.788 v -18.411 h 417.301 v 18.411 z M 486.268,305.467 h 36.821 l -36.821,73.641 h -36.82 l 36.82,-73.641 z m -85.915,0 h 36.821 l -36.821,73.641 h -36.82 l 36.82,-73.641 z m -85.915,0 h 36.821 l -36.821,73.641 h -36.82 l 36.82,-73.641 z m -85.915,0 h 36.82 l -36.82,73.641 h -36.821 l 36.821,-73.641 z m -85.915,0 h 36.821 l -36.821,73.641 h -36.82 l 36.82,-73.641 z M 540.271,195.617 522.477,99.269 64.058,184.572 81.857,280.92 540.271,195.617 z m -76.093,-73.029 36.203,-6.749 -22.701,78.55 -36.209,6.748 22.707,-78.549 z m -84.075,15.341 36.209,-6.749 -22.707,79.162 -36.209,6.752 22.707,-79.165 z m -84.687,15.958 36.209,-6.752 -22.707,79.166 -36.205,6.749 22.703,-79.163 z m -84.687,15.342 36.204,-6.753 -22.702,79.166 -36.209,6.749 22.707,-79.162 z m -84.074,15.954 36.204,-6.749 -22.703,79.162 -36.209,6.753 22.708,-79.166 z m 0,0"
       id="path3037"
       inkscape:connector-curvature="0" /></g></svg>