<?xml version="1.0" encoding="UTF-8" standalone="no"?>
<!-- Generator: Adobe Illustrator 16.0.0, SVG Export Plug-In . SVG Version: 6.00 Build 0)  -->

<svg
   xmlns:dc="http://purl.org/dc/elements/1.1/"
   xmlns:cc="http://creativecommons.org/ns#"
   xmlns:rdf="http://www.w3.org/1999/02/22-rdf-syntax-ns#"
   xmlns:svg="http://www.w3.org/2000/svg"
   xmlns="http://www.w3.org/2000/svg"
   xmlns:xlink="http://www.w3.org/1999/xlink"
   xmlns:sodipodi="http://sodipodi.sourceforge.net/DTD/sodipodi-0.dtd"
   xmlns:inkscape="http://www.inkscape.org/namespaces/inkscape"
   version="1.1"
   id="Capa_1"
   x="0px"
   y="0px"
   width="596"
   height="599"
   viewBox="0 0 596 599"
   enable-background="new 0 0 612 792"
   xml:space="preserve"
   inkscape:version="0.48.5 r10040"
   sodipodi:docname="mecanico.svg"><metadata
     id="metadata3106"><rdf:RDF><cc:Work
         rdf:about=""><dc:format>image/svg+xml</dc:format><dc:type
           rdf:resource="http://purl.org/dc/dcmitype/StillImage" /><dc:title></dc:title></cc:Work></rdf:RDF></metadata><defs
     id="defs3104" /><sodipodi:namedview
     pagecolor="#ffffff"
     bordercolor="#666666"
     borderopacity="1"
     objecttolerance="10"
     gridtolerance="10"
     guidetolerance="10"
     inkscape:pageopacity="0"
     inkscape:pageshadow="2"
     inkscape:window-width="1365"
     inkscape:window-height="767"
     id="namedview3102"
     showgrid="false"
     height="611px"
     inkscape:zoom="0.2979798"
     inkscape:cx="306"
     inkscape:cy="396"
     inkscape:window-x="0"
     inkscape:window-y="0"
     inkscape:window-maximized="0"
     inkscape:current-layer="Capa_1" /><g
     id="g3090"
     transform="matrix(1.32,0,0,1.32,-140.27229,-198.04474)"><g
       id="g3092"><defs
         id="defs3094"><rect
           id="SVGID_1_"
           x="113.245"
           y="156.25301"
           width="435.29999"
           height="436.35001" /></defs><clipPath
         id="SVGID_2_"><use
           xlink:href="#SVGID_1_"
           overflow="visible"
           id="use3098"
           style="overflow:visible"
           x="0"
           y="0"
           width="612"
           height="792" /></clipPath><path
         clip-path="url(#SVGID_2_)"
         d="m 545.741,268.725 c -3.864,17.14 -12.016,31.763 -24.451,43.861 -11.765,11.764 -25.461,19.746 -41.093,23.953 -15.629,4.197 -31.174,4.284 -46.638,0.251 -55.123,38.654 -102.011,84.534 -140.666,137.642 5.043,15.459 5.545,31.512 1.513,48.148 -4.037,16.638 -12.103,31.01 -24.2,43.106 -12.44,12.44 -27.229,20.589 -44.372,24.453 -17.14,3.867 -33.444,3.113 -48.907,-2.267 l 51.935,-51.93 -2.019,-37.316 -19.665,-19.66 -37.308,-2.019 -51.934,51.931 c -5.375,-15.46 -6.134,-31.764 -2.266,-48.907 3.864,-17.14 12.015,-31.932 24.451,-44.367 13.445,-13.445 29.58,-21.849 48.401,-25.209 18.823,-3.362 36.471,-1.348 52.939,6.051 48.738,-35.293 92.1,-79.829 130.083,-133.609 -7.061,-16.473 -8.823,-33.865 -5.298,-52.187 3.534,-18.318 11.852,-34.201 24.958,-47.646 12.437,-12.436 27.228,-20.588 44.372,-24.452 17.14,-3.868 33.443,-3.278 48.907,1.763 l -51.935,51.934 2.018,37.815 19.665,19.661 37.312,2.018 51.931,-51.93 c 5.377,15.463 6.135,31.768 2.267,48.912 l 0,0 z m 0,0"
         id="path3100"
         inkscape:connector-curvature="0" /></g></g></svg>