<?xml version="1.0" encoding="UTF-8" standalone="no"?>
<!-- Generator: Adobe Illustrator 16.0.0, SVG Export Plug-In . SVG Version: 6.00 Build 0)  -->

<svg
   xmlns:dc="http://purl.org/dc/elements/1.1/"
   xmlns:cc="http://creativecommons.org/ns#"
   xmlns:rdf="http://www.w3.org/1999/02/22-rdf-syntax-ns#"
   xmlns:svg="http://www.w3.org/2000/svg"
   xmlns="http://www.w3.org/2000/svg"
   xmlns:sodipodi="http://sodipodi.sourceforge.net/DTD/sodipodi-0.dtd"
   xmlns:inkscape="http://www.inkscape.org/namespaces/inkscape"
   version="1.1"
   id="Capa_1"
   x="0px"
   y="0px"
   width="792"
   height="504"
   viewBox="0 0 792 504"
   enable-background="new 0 0 612 792"
   xml:space="preserve"
   inkscape:version="0.48.5 r10040"
   sodipodi:docname="restaurant.svg"><metadata
     id="metadata3153"><rdf:RDF><cc:Work
         rdf:about=""><dc:format>image/svg+xml</dc:format><dc:type
           rdf:resource="http://purl.org/dc/dcmitype/StillImage" /></cc:Work></rdf:RDF></metadata><defs
     id="defs3151" /><sodipodi:namedview
     pagecolor="#ffffff"
     bordercolor="#666666"
     borderopacity="1"
     objecttolerance="10"
     gridtolerance="10"
     guidetolerance="10"
     inkscape:pageopacity="0"
     inkscape:pageshadow="2"
     inkscape:window-width="1365"
     inkscape:window-height="757"
     id="namedview3149"
     showgrid="false"
     height="611px"
     inkscape:zoom="0.2979798"
     inkscape:cx="306"
     inkscape:cy="396"
     inkscape:window-x="0"
     inkscape:window-y="0"
     inkscape:window-maximized="0"
     inkscape:current-layer="Capa_1" /><g
     id="g3145"
     transform="matrix(1.5,0,0,1.5,-67.715187,-311.49845)"
     style="fill:#ffffff"><path
       d="m 310.835,232.174 c -80.234,0 -145.438,65.213 -145.438,145.441 0,80.156 65.204,145.465 145.438,145.465 80.247,0 145.451,-65.309 145.451,-145.465 0,-80.136 -65.204,-145.441 -145.451,-145.441 l 0,0 z m 0,280.756 c -74.697,0 -135.282,-60.627 -135.282,-135.314 0,-74.7 60.584,-135.193 135.282,-135.193 74.69,0 135.309,60.493 135.309,135.193 -0.102,74.687 -60.619,135.314 -135.309,135.314 l 0,0 z m -172.453,-198.978 0,0 c -0.762,25.17 -28.346,34.754 -28.346,34.754 v 50.357 h 0.113 v 115.974 c 0,0 -11.201,14.36 -25.582,0 V 348.613 h 0.375 c -16.838,-7.087 -29.19,-9.584 -29.954,-34.661 h -0.1 v -78.617 h 12.553 l 6.133,76.016 h 14.923 l 1.814,-77.56 h 12.165 l 1.44,77.56 h 17.42 l 4.024,-76.016 h 13.122 v 78.617 h -0.1 z m 172.453,223.011 c -87.8,0 -159.331,-71.435 -159.331,-159.348 0,-87.806 71.417,-159.236 159.331,-159.236 87.806,0 159.336,71.43 159.336,159.236 0,87.913 -71.53,159.348 -159.336,159.348 l 0,0 z M 564.968,369.2 H 534.13 v 155.986 h -35.618 v -295.02 h 35.618 c 0,0 48.552,61.558 30.838,139.034 l 0,0 z m -205.206,8.415 c 0,27.012 -21.919,48.932 -48.927,48.932 -26.989,0 -48.928,-21.92 -48.928,-48.932 0,-26.987 21.939,-48.931 48.928,-48.931 27.008,10e-4 48.927,21.944 48.927,48.931 l 0,0 z m 0,0"
       id="path3147"
       inkscape:connector-curvature="0"
       style="fill:#ffffff" /></g></svg>