<?xml version="1.0" encoding="UTF-8" standalone="no"?>
<!-- Generator: Adobe Illustrator 16.0.0, SVG Export Plug-In . SVG Version: 6.00 Build 0)  -->

<svg
   xmlns:dc="http://purl.org/dc/elements/1.1/"
   xmlns:cc="http://creativecommons.org/ns#"
   xmlns:rdf="http://www.w3.org/1999/02/22-rdf-syntax-ns#"
   xmlns:svg="http://www.w3.org/2000/svg"
   xmlns="http://www.w3.org/2000/svg"
   xmlns:sodipodi="http://sodipodi.sourceforge.net/DTD/sodipodi-0.dtd"
   xmlns:inkscape="http://www.inkscape.org/namespaces/inkscape"
   version="1.1"
   id="Capa_1"
   x="0px"
   y="0px"
   width="666"
   height="612"
   viewBox="0 0 666 612"
   enable-background="new 0 0 612 792"
   xml:space="preserve"
   inkscape:version="0.48.5 r10040"
   sodipodi:docname="taxi.svg"><metadata
     id="metadata3087"><rdf:RDF><cc:Work
         rdf:about=""><dc:format>image/svg+xml</dc:format><dc:type
           rdf:resource="http://purl.org/dc/dcmitype/StillImage" /></cc:Work></rdf:RDF></metadata><defs
     id="defs3085" /><sodipodi:namedview
     pagecolor="#ffffff"
     bordercolor="#666666"
     borderopacity="1"
     objecttolerance="10"
     gridtolerance="10"
     guidetolerance="10"
     inkscape:pageopacity="0"
     inkscape:pageshadow="2"
     inkscape:window-width="1365"
     inkscape:window-height="767"
     id="namedview3083"
     showgrid="false"
     width="791px"
     inkscape:zoom="0.2979798"
     inkscape:cx="306"
     inkscape:cy="396"
     inkscape:window-x="0"
     inkscape:window-y="0"
     inkscape:window-maximized="0"
     inkscape:current-layer="Capa_1" /><g
     id="g3069"
     transform="matrix(1.26,0,0,1.26,-74.699907,-184.32057)"><path
       d="m 323.665,539.727 0,0 H 185.498 v 43.632 c 0.093,52.895 -76.628,53.525 -76.514,0 V 539.727 H 67.881 V 403.14 c 0.153,-36.532 29.607,-55.883 46.162,-57.859 l 42.051,-107.499 c 7.923,-20.288 25.049,-37.74 57.227,-37.625 h 60.073 v -28.139 c 0.017,-11.171 6.09,-16.857 16.125,-16.757 h 34.146 l 0,0 0,0 0,0 h 34.779 c 9.933,-0.1 16.006,5.586 16.125,16.757 v 28.139 h 59.124 c 32.336,-0.116 49.462,17.337 57.227,37.625 l 42.052,107.499 c 16.712,1.976 46.196,21.327 46.161,57.859 v 136.587 h -40.787 v 43.632 c -0.014,53.525 -76.735,52.895 -76.829,0 V 539.727 H 323.665 l 0,0 0,0 0,0 z"
       id="path3071"
       inkscape:connector-curvature="0" /><path
       d="m 323.665,342.751 h -0.316 -165.674 l 31.617,-83.153 c 3.87,-11.804 9.801,-20.367 23.713,-20.551 h 110.344 0.316 l 0,0 h 110.659 c 13.757,0.185 19.686,8.748 23.714,20.551 l 31.617,83.153 h -165.99 l 0,0 0,0 z"
       id="path3073"
       inkscape:connector-curvature="0"
       style="fill:#ffffff" /><path
       d="m 148.506,456.257 c -19.625,-0.006 -35.493,-16.197 -35.412,-36.044 -0.081,-20.094 15.787,-36.285 35.412,-36.36 19.517,0.075 35.383,16.266 35.411,36.36 -0.028,19.847 -15.895,36.038 -35.411,36.044 l 0,0 z"
       id="path3075"
       inkscape:connector-curvature="0"
       style="fill:#ffffff" /><path
       d="M 148.506,420.213"
       id="path3077"
       inkscape:connector-curvature="0"
       style="fill:#ffffff" /><path
       d="m 498.824,456.257 c 19.469,-0.006 35.335,-16.197 35.412,-36.044 -0.077,-20.094 -15.943,-36.285 -35.412,-36.36 -19.674,0.075 -35.542,16.266 -35.411,36.36 -0.131,19.847 15.737,36.038 35.411,36.044 l 0,0 z"
       id="path3079"
       inkscape:connector-curvature="0"
       style="fill:#ffffff" /><path
       d="M 498.824,420.213"
       id="path3081"
       inkscape:connector-curvature="0"
       style="fill:#ffffff" /></g></svg>