<?xml version="1.0" encoding="UTF-8" standalone="no"?>
<!-- Created with Inkscape (http://www.inkscape.org/) -->

<svg
   xmlns:dc="http://purl.org/dc/elements/1.1/"
   xmlns:cc="http://creativecommons.org/ns#"
   xmlns:rdf="http://www.w3.org/1999/02/22-rdf-syntax-ns#"
   xmlns:svg="http://www.w3.org/2000/svg"
   xmlns="http://www.w3.org/2000/svg"
   xmlns:sodipodi="http://sodipodi.sourceforge.net/DTD/sodipodi-0.dtd"
   xmlns:inkscape="http://www.inkscape.org/namespaces/inkscape"
   width="839.35999"
   height="797.09003"
   id="svg3309"
   version="1.1"
   inkscape:version="0.48.5 r10040"
   sodipodi:docname="New document 4">
  <defs
     id="defs3311" />
  <sodipodi:namedview
     id="base"
     pagecolor="#ffffff"
     bordercolor="#666666"
     borderopacity="1.0"
     inkscape:pageopacity="0.0"
     inkscape:pageshadow="2"
     inkscape:zoom="0.35"
     inkscape:cx="375"
     inkscape:cy="520"
     inkscape:document-units="px"
     inkscape:current-layer="layer1"
     showgrid="false"
     height="744.09px"
     inkscape:window-width="1327"
     inkscape:window-height="764"
     inkscape:window-x="35"
     inkscape:window-y="0"
     inkscape:window-maximized="0" />
  <metadata
     id="metadata3314">
    <rdf:RDF>
      <cc:Work
         rdf:about="">
        <dc:format>image/svg+xml</dc:format>
        <dc:type
           rdf:resource="http://purl.org/dc/dcmitype/StillImage" />
        <dc:title></dc:title>
      </cc:Work>
    </rdf:RDF>
  </metadata>
  <g
     inkscape:label="Layer 1"
     inkscape:groupmode="layer"
     id="layer1"
     transform="translate(0,-255.28073)">
    <g
       id="g3281"
       transform="matrix(31.25,0,0,-31.25,217.28206,888.25371)"
       style="fill:#ffffff">
      <path
         inkscape:connector-curvature="0"
         d="m 0,0 0,-4.921 13.136,0 0,8.207 L 0,3.286 0,0 z"
         style="fill:#ffffff;fill-opacity:1;fill-rule:nonzero;stroke:none"
         id="path3283" />
    </g>
    <g
       id="g3285"
       transform="matrix(31.25,0,0,-31.25,627.77281,426.40071)"
       style="fill:#ffffff">
      <path
         inkscape:connector-curvature="0"
         d="m 0,0 0,4.919 -13.136,0 0,-8.206 L 0,-3.287 0,0 z"
         style="fill:#ffffff;fill-opacity:1;fill-rule:nonzero;stroke:none"
         id="path3287" />
    </g>
    <path
       inkscape:connector-curvature="0"
       d="m 730.18827,426.40071 -51.34371,0 0,154.0625 -512.9375,0 0,-154.0625 -51,0 c -51.406247,0 -102.749997,51.375 -102.749997,102.71875 l 0,256.46875 c 0,51.34375 51.34375,102.65625 102.749997,102.65625 l 51,0 0,-154 512.9375,0 0,154 51.34371,0 c 51.3438,0 102.6875,-51.3125 102.6875,-102.65625 l 0,-256.46875 c 0,-51.34375 -51.3437,-102.71875 -102.6875,-102.71875"
       style="fill:#ffffff;fill-opacity:1;fill-rule:nonzero;stroke:none"
       id="path3291-7" />
  </g>
</svg>
