<?xml version="1.0" encoding="UTF-8" standalone="no"?>
<!-- Created with Inkscape (http://www.inkscape.org/) -->

<svg
   xmlns:dc="http://purl.org/dc/elements/1.1/"
   xmlns:cc="http://creativecommons.org/ns#"
   xmlns:rdf="http://www.w3.org/1999/02/22-rdf-syntax-ns#"
   xmlns:svg="http://www.w3.org/2000/svg"
   xmlns="http://www.w3.org/2000/svg"
   xmlns:sodipodi="http://sodipodi.sourceforge.net/DTD/sodipodi-0.dtd"
   xmlns:inkscape="http://www.inkscape.org/namespaces/inkscape"
   width="846.35999"
   height="744.09448"
   id="svg3318"
   version="1.1"
   inkscape:version="0.48.5 r10040"
   sodipodi:docname="New document 5">
  <defs
     id="defs3320">
    <clipPath
       clipPathUnits="userSpaceOnUse"
       id="clipPath3268">
      <path
         inkscape:connector-curvature="0"
         d="m 0,528.844 412.518,0 L 412.518,0 0,0 0,528.844 z"
         id="path3270" />
    </clipPath>
  </defs>
  <sodipodi:namedview
     id="base"
     pagecolor="#ffffff"
     bordercolor="#666666"
     borderopacity="1.0"
     inkscape:pageopacity="0.0"
     inkscape:pageshadow="2"
     inkscape:zoom="0.49497475"
     inkscape:cx="407.42746"
     inkscape:cy="530.04205"
     inkscape:document-units="px"
     inkscape:current-layer="layer1"
     showgrid="false"
     width="1052.36px"
     inkscape:window-width="1362"
     inkscape:window-height="767"
     inkscape:window-x="0"
     inkscape:window-y="0"
     inkscape:window-maximized="0" />
  <metadata
     id="metadata3323">
    <rdf:RDF>
      <cc:Work
         rdf:about="">
        <dc:format>image/svg+xml</dc:format>
        <dc:type
           rdf:resource="http://purl.org/dc/dcmitype/StillImage" />
        <dc:title></dc:title>
      </cc:Work>
    </rdf:RDF>
  </metadata>
  <g
     inkscape:label="Layer 1"
     inkscape:groupmode="layer"
     id="layer1"
     transform="translate(0,-308.2677)">
    <g
       transform="matrix(22.5,0,0,-22.5,-3258.8597,1812.1401)"
       id="g3264">
      <g
         id="g3266"
         clip-path="url(#clipPath3268)">
        <g
           id="g3272"
           transform="translate(161.5713,34.2236)">
          <path
             inkscape:connector-curvature="0"
             d="m 0,0 c -8.869,0 -16.084,7.215 -16.084,16.084 0,8.869 7.215,16.084 16.084,16.084 8.253,0 15.13,-6.18 15.995,-14.375 0.033,-0.313 0.056,-0.629 0.071,-0.947 l 0.02,-0.403 4.469,-0.666 -8.059,-6.07 -5.94,8.156 4.759,-0.709 -0.1,0.658 C 11.153,18.203 11.087,18.541 11.01,18.85 9.739,23.906 5.212,27.436 0,27.436 c -6.259,0 -11.352,-5.092 -11.352,-11.352 0,-6.26 5.093,-11.352 11.352,-11.352 4.012,0 7.669,2.088 9.722,5.498 L 12.09,6.98 14.234,8.594 C 11.479,3.387 5.976,0 0,0"
             style="fill:#903125;fill-opacity:1;fill-rule:nonzero;stroke:none"
             id="path3274" />
        </g>
      </g>
    </g>
  </g>
</svg>
